# xmcd
#
# Track frame offsets: 
#        150
#        15357
#        29297
#        51471
#        70912
#        86682
#        107827
#        119067
#        132470
#        145750
#        156945
#        173669
#        187352
#        208815
#        220754
#        242508
#
# Disc length: 3794 seconds
#
# Revision: 0
# Processed by: cddbd v1.4PL0 Copyright (c) Steve Scherf et al.
# Submitted via: ExactAudioCopy v0.90b4
#
DISCID=f00ed010
DTITLE=Various Artist - Blues From Holland Vol 1
DYEAR=2003
DGENRE=Blues
TTITLE0=Cuby and The Blizzards - Disappointed Blues
TTITLE1=Rob Hoeke - Oh Baby Please
TTITLE2=Livin' Blues - Go Go Train
TTITLE3=Bintangs - Blues On The Ceiling
TTITLE4=Q65 - Spoonful
TTITLE5=Blues Dimension - Battle-Field Of Love
TTITLE6=Oscar Benton - Dedicated To Lofton
TTITLE7=Flavium - Walkin' Blues
TTITLE8=Indiscrimination - Harp Blowing Blues
TTITLE9=Endatteme Jugband - Corn Bread, Peas And Black Molasses
TTITLE10=Cuby and Blizzards - So Many Roads
TTITLE11=Rob Hoeke - Schoolday Blues
TTITLE12=Livin' Blues - When The Sun Goes Down
TTITLE13=Bintangs - Down South Blues
TTITLE14=Q65 - Ramblling On My Mind
TTITLE15=Blues Dimension - Blues Dimension
EXTD=
EXTT0=
EXTT1=
EXTT2=
EXTT3=
EXTT4=
EXTT5=
EXTT6=
EXTT7=
EXTT8=
EXTT9=
EXTT10=
EXTT11=
EXTT12=
EXTT13=
EXTT14=
EXTT15=
PLAYORDER=
